<svg viewBox="0 0 100 110" xmlns="http://www.w3.org/2000/svg">
  <defs>
    <linearGradient id="mangoBody" x1="0.1" y1="0.05" x2="0.85" y2="0.95">
      <stop offset="0%" stop-color="#FF5E3A"/>
      <stop offset="45%" stop-color="#FFB648"/>
      <stop offset="100%" stop-color="#FFE08A"/>
    </linearGradient>
    <linearGradient id="mangoLeaf" x1="0" y1="0" x2="1" y2="1">
      <stop offset="0%" stop-color="#B7DB5B"/>
      <stop offset="100%" stop-color="#4F8A2B"/>
    </linearGradient>
    <radialGradient id="mangoBlush" cx="0.3" cy="0.25" r="0.5">
      <stop offset="0%" stop-color="#FF3B30" stop-opacity="0.55"/>
      <stop offset="100%" stop-color="#FF3B30" stop-opacity="0"/>
    </radialGradient>
  </defs>
  <g transform="rotate(-24 50 60)">
    <path d="M50 14 C68 14 80 34 80 58 C80 84 66 100 48 100 C30 100 18 82 18 58 C18 34 32 14 50 14 Z" fill="url(#mangoBody)" />
    <path d="M50 14 C68 14 80 34 80 58 C80 84 66 100 48 100 C30 100 18 82 18 58 C18 34 32 14 50 14 Z" fill="url(#mangoBlush)" />
  </g>
  <path d="M46 18 C40 10 41 2 48 -4 C54 2 55 11 49 19 C48 19 47 19 46 18 Z" fill="url(#mangoLeaf)" transform="translate(0 10) rotate(-18 46 12)" />
</svg>
